<svg xmlns="http://www.w3.org/2000/svg" xmlns:xlink="http://www.w3.org/1999/xlink" width="40" height="40" viewBox="0 0 40 40">
  <defs>
    <clipPath id="clip-path">
      <rect id="logo_git_clicavel" data-name="logo git clicavel" width="40" height="40" transform="translate(827 960)" fill="#fff"/>
    </clipPath>
  </defs>
  <g id="git-white" transform="translate(-827 -960)" clip-path="url(#clip-path)">
    <path id="git" d="M13.379,32.048c0,.161-.185.29-.419.29-.266.024-.452-.1-.452-.29,0-.161.185-.29.419-.29C13.169,31.734,13.379,31.863,13.379,32.048Zm-2.508-.363c-.056.161.1.347.347.4a.378.378,0,0,0,.5-.161c.048-.161-.1-.347-.347-.419a.414.414,0,0,0-.5.185Zm3.565-.137c-.234.056-.4.21-.371.4.024.161.234.266.476.21s.4-.21.371-.371S14.669,31.524,14.435,31.548ZM19.742.645A19.338,19.338,0,0,0,0,20.323a20.219,20.219,0,0,0,13.669,19.29c1.032.185,1.4-.452,1.4-.976,0-.5-.024-3.258-.024-4.952,0,0-5.645,1.21-6.831-2.4,0,0-.919-2.347-2.242-2.952,0,0-1.847-1.266.129-1.242A4.257,4.257,0,0,1,9.21,29.169c1.766,3.113,4.726,2.218,5.879,1.685a4.482,4.482,0,0,1,1.29-2.718c-4.508-.5-9.056-1.153-9.056-8.911a6.112,6.112,0,0,1,1.9-4.75A7.619,7.619,0,0,1,9.435,9C11.121,8.476,15,11.177,15,11.177a19.052,19.052,0,0,1,10.129,0S29.008,8.468,30.694,9a7.616,7.616,0,0,1,.21,5.476,6.269,6.269,0,0,1,2.081,4.75c0,7.782-4.75,8.4-9.258,8.911A4.769,4.769,0,0,1,25.1,31.879c0,2.718-.024,6.081-.024,6.742,0,.524.371,1.161,1.4.976A20.032,20.032,0,0,0,40,20.323C40,9.137,30.927.645,19.742.645ZM7.839,28.46c-.1.081-.081.266.056.419.129.129.315.185.419.081.1-.081.081-.266-.056-.419C8.129,28.411,7.944,28.355,7.839,28.46Zm-.871-.653c-.056.1.024.234.185.315a.24.24,0,0,0,.347-.056c.056-.1-.024-.234-.185-.315C7.153,27.7,7.024,27.726,6.968,27.806Zm2.613,2.871c-.129.1-.081.347.1.5.185.185.419.21.524.081.1-.1.056-.347-.1-.5C9.927,30.573,9.685,30.548,9.581,30.677Zm-.919-1.185c-.129.081-.129.29,0,.476s.347.266.452.185a.368.368,0,0,0,0-.5c-.113-.185-.323-.266-.452-.161Z" transform="translate(827 959.855)" fill="#fff"/>
  </g>
</svg>
