<svg xmlns="http://www.w3.org/2000/svg" xmlns:xlink="http://www.w3.org/1999/xlink" width="50" height="50" viewBox="0 0 50 50">
  <defs>
    <clipPath id="clip-path">
      <rect id="btn_add" data-name="btn add" width="50" height="50" transform="translate(960 147)" fill="#484b4d"/>
    </clipPath>
  </defs>
  <g id="Mask_Group_20" data-name="Mask Group 20" transform="translate(-960 -147)" clip-path="url(#clip-path)">
    <path id="add" d="M44.643,3.571H5.357A5.359,5.359,0,0,0,0,8.929V48.214a5.359,5.359,0,0,0,5.357,5.357H44.643A5.359,5.359,0,0,0,50,48.214V8.929A5.359,5.359,0,0,0,44.643,3.571ZM41.071,31.7a1.343,1.343,0,0,1-1.339,1.339H29.464V43.3a1.343,1.343,0,0,1-1.339,1.339h-6.25A1.343,1.343,0,0,1,20.536,43.3V33.036H10.268A1.343,1.343,0,0,1,8.929,31.7v-6.25a1.343,1.343,0,0,1,1.339-1.339H20.536V13.839A1.343,1.343,0,0,1,21.875,12.5h6.25a1.343,1.343,0,0,1,1.339,1.339V24.107H39.732a1.343,1.343,0,0,1,1.339,1.339Z" transform="translate(960 143.429)"/>
  </g>
</svg>
