<svg xmlns="http://www.w3.org/2000/svg" xmlns:xlink="http://www.w3.org/1999/xlink" width="40" height="41" viewBox="0 0 40 41">
  <defs>
    <clipPath id="clip-path">
      <rect id="Icon" width="40" height="41" transform="translate(447 295)" fill="blue"/>
    </clipPath>
  </defs>
  <g id="todo" transform="translate(-447 -295)" clip-path="url(#clip-path)">
    <path id="todo-2" data-name="todo" d="M11.667,16.875v6.25A1.875,1.875,0,0,1,9.792,25H1.875A1.875,1.875,0,0,1,0,23.125v-6.25A1.875,1.875,0,0,1,1.875,15H9.792a1.875,1.875,0,0,1,1.875,1.875ZM0,29.375v6.25A1.875,1.875,0,0,0,1.875,37.5H9.792a1.875,1.875,0,0,0,1.875-1.875v-6.25A1.875,1.875,0,0,0,9.792,27.5H1.875A1.875,1.875,0,0,0,0,29.375ZM9.792,2.5H1.875A1.875,1.875,0,0,0,0,4.375v6.25A1.875,1.875,0,0,0,1.875,12.5H9.792a1.875,1.875,0,0,0,1.875-1.875V4.375A1.875,1.875,0,0,0,9.792,2.5Zm6.25,35H38.125A1.875,1.875,0,0,0,40,35.625v-6.25A1.875,1.875,0,0,0,38.125,27.5H16.042a1.875,1.875,0,0,0-1.875,1.875v6.25A1.875,1.875,0,0,0,16.042,37.5ZM14.167,4.375v6.25A1.875,1.875,0,0,0,16.042,12.5H38.125A1.875,1.875,0,0,0,40,10.625V4.375A1.875,1.875,0,0,0,38.125,2.5H16.042a1.875,1.875,0,0,0-1.875,1.875ZM16.042,25H38.125A1.875,1.875,0,0,0,40,23.125v-6.25A1.875,1.875,0,0,0,38.125,15H16.042a1.875,1.875,0,0,0-1.875,1.875v6.25A1.875,1.875,0,0,0,16.042,25Z" transform="translate(447 295.5)" fill="blue"/>
  </g>
</svg>
